<svg
    xmlns="http://www.w3.org/2000/svg"
    viewBox="0 0 512 512"
    id="vector">
    <path
        id="path"
        d="M 182 346.4 Q 172.6 346.4 165.9 339.7 Q 159.2 333 159.2 323.6 L 159.2 217.8 L 113.4 163.5 L 330.7 163.5 Q 340.1 163.5 346.8 170.2 Q 353.6 176.9 353.6 186.4 L 353.6 323.6 Q 353.6 333 346.8 339.7 Q 340.1 346.4 330.7 346.4 Z M 182 186.4 L 182 323.6 L 330.6 323.6 L 330.6 186.4 Z M 256.3 192.1 M 182 186.4 L 182 323.6 Z"
        fill="#a0c4ff"
        fill-rule="evenodd"/>
    <path
        id="path_1"
        d="M 204.9 243.5 L 307.8 243.5 L 256.4 192.1 L 240.4 208.1 L 252.9 220.7 L 204.9 220.7 Z"
        fill="#ffadad"
        fill-rule="evenodd"/>
    <path
        id="path_2"
        d="M 256.4 317.9 L 272.4 301.9 L 259.8 289.3 L 307.8 289.3 L 307.8 266.4 L 204.9 266.4 Z"
        fill="#caffbf"
        fill-rule="evenodd"/>
</svg>
